<?xml version="1.0" standalone="no"?><!DOCTYPE svg PUBLIC "-//W3C//DTD SVG 1.1//EN" "http://www.w3.org/Graphics/SVG/1.1/DTD/svg11.dtd"><svg t="1637769612603" class="icon" viewBox="0 0 1024 1024" version="1.1" xmlns="http://www.w3.org/2000/svg" p-id="1733" xmlns:xlink="http://www.w3.org/1999/xlink" width="64" height="64"><defs><style type="text/css"></style></defs><path d="M191.189333 946.432a180.906667 180.906667 0 0 1-180.864-180.864V258.261333a180.906667 180.906667 0 0 1 180.693334-180.693333h641.621333a180.906667 180.906667 0 0 1 180.650667 180.693333v507.306667a180.906667 180.906667 0 0 1-180.650667 180.693333z m-116.864-180.864a116.821333 116.821333 0 0 0 116.693334 116.693333h641.621333a116.821333 116.821333 0 0 0 116.693333-116.693333V409.813333H74.325333zM949.333333 345.685333V258.261333a116.821333 116.821333 0 0 0-116.693333-116.693333H191.018667a116.821333 116.821333 0 0 0-116.693334 116.693333v87.594667zM243.541333 588.544a32 32 0 0 1-32-32 32.042667 32.042667 0 0 1 32-32.042667h223.573334a32.042667 32.042667 0 0 1 32 32.042667 32 32 0 0 1-32 32z" fill="#4D4D4D" p-id="1734"></path></svg>