<?xml version="1.0" standalone="no"?><!DOCTYPE svg PUBLIC "-//W3C//DTD SVG 1.1//EN" "http://www.w3.org/Graphics/SVG/1.1/DTD/svg11.dtd"><svg t="1637769583974" class="icon" viewBox="0 0 1024 1024" version="1.1" xmlns="http://www.w3.org/2000/svg" p-id="1281" xmlns:xlink="http://www.w3.org/1999/xlink" width="64" height="64"><defs><style type="text/css"></style></defs><path d="M416.896 634.624l103.808-22.272 401.450667-401.408v-7.125333l-74.325334-74.368a5.12 5.12 0 0 0-7.125333 0L439.466667 530.901333l-22.357334 103.722667m0 64a64 64 0 0 1-62.549333-77.482667l22.357333-103.722666a64 64 0 0 1 17.322667-31.786667l401.450667-401.450667 0.512-0.512a69.12 69.12 0 0 1 96.64 0l0.512 0.512 74.325333 74.368a64 64 0 0 1 18.730667 45.226667v7.125333A64 64 0 0 1 967.424 256l-401.450667 401.408a64 64 0 0 1-31.829333 17.322667l-103.808 22.272a64 64 0 0 1-13.44 1.621333z" fill="#4D4D4D" p-id="1282"></path><path d="M810.666667 1013.333333H213.333333A160.170667 160.170667 0 0 1 53.333333 853.333333V256A160.170667 160.170667 0 0 1 213.333333 96h298.666667a32 32 0 0 1 0 64H213.333333A96.128 96.128 0 0 0 117.333333 256v597.333333A96.128 96.128 0 0 0 213.333333 949.333333h597.333334A96.128 96.128 0 0 0 906.666667 853.333333v-298.666666a32 32 0 0 1 64 0v298.666666A160.170667 160.170667 0 0 1 810.666667 1013.333333z" fill="#4D4D4D" p-id="1283"></path></svg>