<?xml version="1.0" standalone="no"?><!DOCTYPE svg PUBLIC "-//W3C//DTD SVG 1.1//EN" "http://www.w3.org/Graphics/SVG/1.1/DTD/svg11.dtd"><svg t="1637769559982" class="icon" viewBox="0 0 1024 1024" version="1.1" xmlns="http://www.w3.org/2000/svg" p-id="1076" xmlns:xlink="http://www.w3.org/1999/xlink" width="64" height="64"><defs><style type="text/css"></style></defs><path d="M761.173333 1016.704H262.826667a166.997333 166.997333 0 0 1-166.826667-166.826667V266.197333a166.997333 166.997333 0 0 1 166.826667-166.826666h58.026666a32 32 0 0 1 0 64H262.826667a102.954667 102.954667 0 0 0-102.826667 102.826666v583.68a102.954667 102.954667 0 0 0 102.826667 102.826667h498.346666a102.954667 102.954667 0 0 0 102.826667-102.826667V266.197333a102.954667 102.954667 0 0 0-102.826667-102.826666h-58.026666a32 32 0 0 1 0-64h58.026666a166.997333 166.997333 0 0 1 166.826667 166.826666v583.68a166.997333 166.997333 0 0 1-166.826667 166.826667z" fill="#000000" p-id="1077"></path><path d="M426.666667 7.338667h170.666666a138.666667 138.666667 0 0 1 0 277.333333h-170.666666a138.666667 138.666667 0 0 1 0-277.333333z m170.666666 213.333333a74.666667 74.666667 0 0 0 0-149.333333h-170.666666a74.666667 74.666667 0 0 0 0 149.333333z" fill="#000000" p-id="1078"></path><path d="M725.333333 490.197333H256a32 32 0 0 1-32-32 32 32 0 0 1 32-32h469.333333a32 32 0 0 1 32 32 32 32 0 0 1-32 32z" fill="#000000" p-id="1079"></path><path d="M725.333333 660.864H256a32 32 0 0 1-32-32 32 32 0 0 1 32-32h469.333333a32 32 0 0 1 32 32 32 32 0 0 1-32 32z" fill="#000000" p-id="1080"></path><path d="M512 831.530667H256a32 32 0 0 1-32-32 32 32 0 0 1 32-32h256a32 32 0 0 1 32 32 32 32 0 0 1-32 32z" fill="#000000" p-id="1081"></path></svg>