<?xml version="1.0" standalone="no"?><!DOCTYPE svg PUBLIC "-//W3C//DTD SVG 1.1//EN" "http://www.w3.org/Graphics/SVG/1.1/DTD/svg11.dtd"><svg t="1637769605842" class="icon" viewBox="0 0 1024 1024" version="1.1" xmlns="http://www.w3.org/2000/svg" p-id="1581" xmlns:xlink="http://www.w3.org/1999/xlink" width="64" height="64"><defs><style type="text/css"></style></defs><path d="M372.906667 1006.208a32 32 0 0 1-9.130667-1.322667 494.933333 494.933333 0 0 1-214.997333-131.114666 32 32 0 0 1-1.408-42.666667 106.666667 106.666667 0 0 0-81.621334-175.488 100.309333 100.309333 0 0 0-10.453333 0.512 32 32 0 0 1-34.645333-25.6 497.962667 497.962667 0 0 1 12.8-247.850667 32 32 0 0 1 30.549333-22.442666h1.962667a106.666667 106.666667 0 0 0 95.786666-153.856 32 32 0 0 1 6.912-37.546667 495.829333 495.829333 0 0 1 204.373334-114.389333 32 32 0 0 1 37.034666 16.298666 106.666667 106.666667 0 0 0 190.293334 0 32 32 0 0 1 37.034666-16.298666 496.298667 496.298667 0 0 1 204.373334 114.346666 32 32 0 0 1 6.912 37.632 105.344 105.344 0 0 0-10.922667 46.933334 106.666667 106.666667 0 0 0 106.666667 106.666666h1.962666a32 32 0 0 1 30.549334 22.442667 498.005333 498.005333 0 0 1 12.8 247.850667 32 32 0 0 1-34.645334 25.6 100.352 100.352 0 0 0-10.453333-0.512 106.666667 106.666667 0 0 0-81.578667 175.488 32 32 0 0 1-1.408 42.666666 494.933333 494.933333 0 0 1-214.997333 131.114667 32 32 0 0 1-39.594667-20.949333 106.666667 106.666667 0 0 0-203.306666 0 32 32 0 0 1-30.848 22.485333z m132.266666-160.426667a170.069333 170.069333 0 0 1 149.845334 88.789334 430.933333 430.933333 0 0 0 141.610666-86.912 170.666667 170.666667 0 0 1 134.613334-255.658667 434.346667 434.346667 0 0 0-9.429334-169.216 170.88 170.88 0 0 1-139.989333-221.482667 432.853333 432.853333 0 0 0-138.837333-78.165333 170.666667 170.666667 0 0 1-275.712 0 432.341333 432.341333 0 0 0-138.794667 78.165333 170.922667 170.922667 0 0 1-139.989333 221.44 434.346667 434.346667 0 0 0-9.429334 169.216 170.666667 170.666667 0 0 1 134.613334 255.658667 430.933333 430.933333 0 0 0 141.610666 86.912 170.112 170.112 0 0 1 149.76-88.746667z" fill="#4D4D4D" p-id="1582"></path><path d="M505.045333 724.821333a193.792 193.792 0 1 1 193.834667-193.792 194.048 194.048 0 0 1-193.834667 193.792z m0-323.626666a129.792 129.792 0 1 0 129.834667 129.834666 129.962667 129.962667 0 0 0-129.834667-129.834666z" fill="#4D4D4D" p-id="1583"></path></svg>