<?xml version="1.0" standalone="no"?><!DOCTYPE svg PUBLIC "-//W3C//DTD SVG 1.1//EN" "http://www.w3.org/Graphics/SVG/1.1/DTD/svg11.dtd"><svg t="1637769593191" class="icon" viewBox="0 0 1024 1024" version="1.1" xmlns="http://www.w3.org/2000/svg" p-id="1431" xmlns:xlink="http://www.w3.org/1999/xlink" width="64" height="64"><defs><style type="text/css"></style></defs><path d="M512 10.666667a501.333333 501.333333 0 0 1 354.517333 855.850666A501.333333 501.333333 0 1 1 157.482667 157.482667 498.048 498.048 0 0 1 512 10.666667z m0 938.666666A437.333333 437.333333 0 1 0 74.666667 512 437.845333 437.845333 0 0 0 512 949.333333z" fill="#4D4D4D" p-id="1432"></path><path d="M755.2 766.378667a31.872 31.872 0 0 1-21.589333-8.533334l-243.2-222.378666a32 32 0 0 1-10.410667-23.637334v-256a32 32 0 0 1 64 0v241.877334l232.832 212.864a32 32 0 0 1-21.589333 55.466666z" fill="#4D4D4D" p-id="1433"></path></svg>